<svg width="32" height="32" viewBox="0 0 32 32" fill="none" xmlns="http://www.w3.org/2000/svg">
<rect width="32" height="32" rx="4" fill="#19C37D" fill-opacity="0.1"/>
<g clip-path="url(#clip0_18_102)">
<path d="M9.50938 9.37722C9.18125 10.1866 9 11.071 9 12.0022C9 12.9335 9.18125 13.8178 9.50938 14.6272C9.71563 15.1397 9.46875 15.721 8.95625 15.9303C8.44375 16.1397 7.8625 15.8897 7.65312 15.3772C7.23125 14.3335 7 13.1928 7 12.0022C7 10.8116 7.23125 9.67097 7.65312 8.62722C7.8625 8.11472 8.44375 7.86784 8.95625 8.07409C9.46875 8.28034 9.71563 8.86472 9.50938 9.37722ZM24.3469 8.62722C24.7687 9.67097 25 10.8116 25 12.0022C25 13.1928 24.7687 14.3335 24.3469 15.3772C24.1406 15.8897 23.5563 16.1366 23.0438 15.9303C22.5313 15.7241 22.2844 15.1397 22.4906 14.6272C22.8188 13.8178 23 12.9335 23 12.0022C23 11.071 22.8188 10.1866 22.4906 9.37722C22.2844 8.86472 22.5313 8.28347 23.0438 8.07409C23.5563 7.86472 24.1375 8.11472 24.3469 8.62722ZM18 12.0022C18 12.7428 17.5969 13.3897 17 13.7335V23.0022C17 23.5553 16.5531 24.0022 16 24.0022C15.4469 24.0022 15 23.5553 15 23.0022V13.7335C14.4031 13.3866 14 12.7428 14 12.0022C14 10.8991 14.8969 10.0022 16 10.0022C17.1031 10.0022 18 10.8991 18 12.0022ZM12.3313 10.4022C12.1188 10.8897 12 11.4303 12 12.0022C12 12.5741 12.1188 13.1147 12.3313 13.6022C12.5531 14.1085 12.3219 14.6991 11.8156 14.9178C11.3094 15.1366 10.7188 14.9085 10.5 14.4022C10.1781 13.6647 10 12.8522 10 12.0022C10 11.1522 10.1781 10.3397 10.5 9.60222C10.7219 9.09597 11.3094 8.86472 11.8156 9.08659C12.3219 9.30847 12.5531 9.89597 12.3313 10.4022ZM21.5 9.60222C21.8219 10.3397 22 11.1522 22 12.0022C22 12.8522 21.8219 13.6647 21.5 14.4022C21.2781 14.9085 20.6906 15.1397 20.1844 14.9178C19.6781 14.696 19.4469 14.1085 19.6687 13.6022C19.8812 13.1147 20 12.5741 20 12.0022C20 11.4303 19.8812 10.8897 19.6687 10.4022C19.4469 9.89597 19.6781 9.30534 20.1844 9.08659C20.6906 8.86784 21.2812 9.09597 21.5 9.60222Z" fill="#19C37D"/>
</g>
<defs>
<clipPath id="clip0_18_102">
<rect width="18" height="16" fill="white" transform="translate(7 8)"/>
</clipPath>
</defs>
</svg>
