<svg width="16" height="16" viewBox="0 0 16 16" fill="none" xmlns="http://www.w3.org/2000/svg">
<path d="M6 1C6 0.446875 6.44688 0 7 0C11.9719 0 16 4.02812 16 9C16 9.55313 15.5531 10 15 10C14.4469 10 14 9.55313 14 9C14 5.13438 10.8656 2 7 2C6.44688 2 6 1.55313 6 1ZM1.89375 6.89375L5.14687 10.1469L6.03438 9.25937C6.0125 9.17812 6 9.09062 6 9C6 8.44687 6.44688 8 7 8C7.55312 8 8 8.44687 8 9C8 9.55313 7.55312 10 7 10C6.90938 10 6.825 9.9875 6.74062 9.96562L5.85313 10.8531L9.10625 14.1062C9.55937 14.5594 9.475 15.3188 8.87813 15.5531C8.14062 15.8406 7.34062 16 6.5 16C2.90937 16 0 13.0906 0 9.5C0 8.65938 0.159375 7.85938 0.45 7.12187C0.684375 6.52812 1.44375 6.44063 1.89688 6.89375H1.89375ZM7 3C10.3125 3 13 5.6875 13 9C13 9.55313 12.5531 10 12 10C11.4469 10 11 9.55313 11 9C11 6.79063 9.20938 5 7 5C6.44688 5 6 4.55312 6 4C6 3.44688 6.44688 3 7 3Z" fill="#19C37D"/>
</svg>
