<svg width="20" height="14" viewBox="0 0 20 14" fill="none" xmlns="http://www.w3.org/2000/svg">
<path d="M1.40691 0.276252C1.50066 0.0856267 1.70691 -0.0237482 1.91629 0.00437678L9.56629 0.960627L17.2163 0.00437678C17.4257 -0.0206232 17.6319 0.0887517 17.7257 0.276252L19.0288 2.8825C19.31 3.44188 19.01 4.12 18.41 4.29188L13.3038 5.75125C12.8694 5.87625 12.4038 5.69188 12.1725 5.30438L9.56629 0.960627L6.96004 5.30438C6.72879 5.69188 6.26316 5.87625 5.82879 5.75125L0.725661 4.29188C0.122536 4.12 -0.174339 3.44188 0.106911 2.8825L1.40691 0.276252ZM9.60066 2.96063L11.3163 5.81688C11.7819 6.59188 12.71 6.96063 13.5819 6.71063L17.5663 5.57313V10.7919C17.5663 11.4794 17.0975 12.0794 16.4288 12.2481L10.0507 13.8419C9.73191 13.9231 9.39754 13.9231 9.08191 13.8419L2.70379 12.2481C2.03504 12.0763 1.56629 11.4763 1.56629 10.7888V5.57L5.55379 6.71063C6.42254 6.96063 7.35379 6.59188 7.81941 5.81688L9.53191 2.96063H9.60066Z" fill="#9CA3AF"/>
</svg>
