<svg width="13" height="20" viewBox="0 0 13 20" fill="none" xmlns="http://www.w3.org/2000/svg">
<path d="M8.55859 11.0625C10.582 11.0625 12.25 12.7305 12.25 14.7539V15.4375C12.25 16.1758 11.6484 16.75 10.9375 16.75H1.3125C0.574219 16.75 0 16.1758 0 15.4375V14.7539C0 12.7305 1.64062 11.0625 3.66406 11.0625C4.45703 11.0625 4.8125 11.5 6.125 11.5C7.41016 11.5 7.76562 11.0625 8.55859 11.0625ZM10.9375 15.4375V14.7539C10.9375 13.4414 9.87109 12.375 8.55859 12.375C8.14844 12.375 7.51953 12.8125 6.125 12.8125C4.70312 12.8125 4.07422 12.375 3.66406 12.375C2.35156 12.375 1.3125 13.4414 1.3125 14.7539V15.4375H10.9375ZM6.125 10.625C3.9375 10.625 2.1875 8.875 2.1875 6.6875C2.1875 4.52734 3.9375 2.75 6.125 2.75C8.28516 2.75 10.0625 4.52734 10.0625 6.6875C10.0625 8.875 8.28516 10.625 6.125 10.625ZM6.125 4.0625C4.67578 4.0625 3.5 5.26562 3.5 6.6875C3.5 8.13672 4.67578 9.3125 6.125 9.3125C7.54688 9.3125 8.75 8.13672 8.75 6.6875C8.75 5.26562 7.54688 4.0625 6.125 4.0625Z" fill="#A1A1AA"/>
</svg>
