<svg width="13" height="20" viewBox="0 0 13 20" fill="none" xmlns="http://www.w3.org/2000/svg">
<path d="M10.9375 8.875C11.6484 8.875 12.25 9.47656 12.25 10.1875V15.4375C12.25 16.1758 11.6484 16.75 10.9375 16.75H1.3125C0.574219 16.75 0 16.1758 0 15.4375V10.1875C0 9.47656 0.574219 8.875 1.3125 8.875H1.96875V6.90625C1.96875 4.63672 3.82812 2.75 6.125 2.75C8.39453 2.75 10.2812 4.63672 10.2812 6.90625V8.875H10.9375ZM8.09375 8.875V6.90625C8.09375 5.83984 7.19141 4.9375 6.125 4.9375C5.03125 4.9375 4.15625 5.83984 4.15625 6.90625V8.875H8.09375Z" fill="#A1A1AA"/>
</svg>
