<svg width="64" height="64" viewBox="0 0 64 64" fill="none" xmlns="http://www.w3.org/2000/svg">
<rect width="64" height="64" rx="32" fill="#E01B24" fill-opacity="0.1"/>
<path d="M48.4648 42.5898C49.5195 44.4648 48.1719 46.75 46.0039 46.75H17.9375C15.7695 46.75 14.4219 44.4062 15.4766 42.5898L29.5391 18.1562C30.5938 16.2812 33.3477 16.3398 34.4023 18.1562L48.4648 42.5898ZM32 37.4922C30.4766 37.4922 29.3047 38.7227 29.3047 40.1875C29.3047 41.7109 30.4766 42.8828 32 42.8828C33.4648 42.8828 34.6953 41.7109 34.6953 40.1875C34.6953 38.7227 33.4648 37.4922 32 37.4922ZM29.4219 27.8242L29.832 35.793C29.8906 36.2031 30.1836 36.4375 30.5352 36.4375H33.4062C33.7578 36.4375 34.0508 36.2031 34.1094 35.793L34.5195 27.8242C34.5781 27.4141 34.2266 27.0625 33.8164 27.0625H30.125C29.7148 27.0625 29.3633 27.4141 29.4219 27.8242Z" fill="#E01B24"/>
</svg>
