<svg width="16" height="16" viewBox="0 0 16 16" fill="none" xmlns="http://www.w3.org/2000/svg">
<g clip-path="url(#clip0_18_77)">
<path d="M13 6.5C13 7.93437 12.5344 9.25938 11.75 10.3344L15.7063 14.2937C16.0969 14.6844 16.0969 15.3188 15.7063 15.7094C15.3156 16.1 14.6812 16.1 14.2906 15.7094L10.3344 11.75C9.25938 12.5375 7.93437 13 6.5 13C2.90937 13 0 10.0906 0 6.5C0 2.90937 2.90937 0 6.5 0C10.0906 0 13 2.90937 13 6.5ZM9 5.5C9 4.11875 7.88125 3 6.5 3C5.11875 3 4 4.11875 4 5.5C4 7.025 5.45312 8.9875 6.14375 9.83125C6.33125 10.0594 6.66875 10.0594 6.85313 9.83125C7.54375 8.9875 8.99687 7.025 8.99687 5.5H9ZM5.5 5.5C5.5 5.23478 5.60536 4.98043 5.79289 4.79289C5.98043 4.60536 6.23478 4.5 6.5 4.5C6.76522 4.5 7.01957 4.60536 7.20711 4.79289C7.39464 4.98043 7.5 5.23478 7.5 5.5C7.5 5.76522 7.39464 6.01957 7.20711 6.20711C7.01957 6.39464 6.76522 6.5 6.5 6.5C6.23478 6.5 5.98043 6.39464 5.79289 6.20711C5.60536 6.01957 5.5 5.76522 5.5 5.5Z" fill="#9CA3AF"/>
</g>
<defs>
<clipPath id="clip0_18_77">
<rect width="16" height="16" fill="white"/>
</clipPath>
</defs>
</svg>
