<svg width="14" height="14" viewBox="0 0 14 14" fill="none" xmlns="http://www.w3.org/2000/svg">
<path d="M1.32617 6.12495H1.09375C0.730078 6.12495 0.4375 5.83237 0.4375 5.4687V1.9687C0.4375 1.70347 0.596094 1.46284 0.842187 1.36167C1.08828 1.2605 1.36992 1.31519 1.55859 1.50386L2.69609 2.64136C5.09141 0.276124 8.94961 0.284327 11.3313 2.6687C13.7238 5.06128 13.7238 8.93862 11.3313 11.3312C8.93867 13.7238 5.06133 13.7238 2.66875 11.3312C2.32695 10.9894 2.32695 10.4343 2.66875 10.0925C3.01055 9.75073 3.56562 9.75073 3.90742 10.0925C5.61641 11.8015 8.38633 11.8015 10.0953 10.0925C11.8043 8.38355 11.8043 5.61362 10.0953 3.90464C8.39453 2.20386 5.64648 2.19565 3.93477 3.8773L5.05859 5.00386C5.24727 5.19253 5.30195 5.47417 5.20078 5.72026C5.09961 5.96636 4.85898 6.12495 4.59375 6.12495H1.32617Z" fill="#FAAD14"/>
</svg>
