<svg width="12" height="15" viewBox="0 0 12 15" fill="none" xmlns="http://www.w3.org/2000/svg">
<path d="M6.75 2.25C6.75 1.83516 6.41484 1.5 6 1.5C5.58516 1.5 5.25 1.83516 5.25 2.25V7.93828L3.52969 6.21797C3.23672 5.925 2.76094 5.925 2.46797 6.21797C2.175 6.51094 2.175 6.98672 2.46797 7.27969L5.46797 10.2797C5.76094 10.5727 6.23672 10.5727 6.52969 10.2797L9.52969 7.27969C9.82266 6.98672 9.82266 6.51094 9.52969 6.21797C9.23672 5.925 8.76094 5.925 8.46797 6.21797L6.75 7.93828V2.25ZM1.5 9.75C0.672656 9.75 0 10.4227 0 11.25V12C0 12.8273 0.672656 13.5 1.5 13.5H10.5C11.3273 13.5 12 12.8273 12 12V11.25C12 10.4227 11.3273 9.75 10.5 9.75H8.12109L7.05938 10.8117C6.47344 11.3977 5.52422 11.3977 4.93828 10.8117L3.87891 9.75H1.5ZM10.125 11.0625C10.2742 11.0625 10.4173 11.1218 10.5227 11.2273C10.6282 11.3327 10.6875 11.4758 10.6875 11.625C10.6875 11.7742 10.6282 11.9173 10.5227 12.0227C10.4173 12.1282 10.2742 12.1875 10.125 12.1875C9.97582 12.1875 9.83274 12.1282 9.72725 12.0227C9.62176 11.9173 9.5625 11.7742 9.5625 11.625C9.5625 11.4758 9.62176 11.3327 9.72725 11.2273C9.83274 11.1218 9.97582 11.0625 10.125 11.0625Z" fill="#9CA3AF"/>
</svg>
