<svg width="12" height="15" viewBox="0 0 12 15" fill="none" xmlns="http://www.w3.org/2000/svg">
<path d="M10.5 10.5H6C5.17266 10.5 4.5 9.82734 4.5 9V3C4.5 2.17266 5.17266 1.5 6 1.5H9.28359C9.58125 1.5 9.86719 1.61953 10.0781 1.83047L11.6695 3.42188C11.8805 3.63281 12 3.91875 12 4.21641V9C12 9.82734 11.3273 10.5 10.5 10.5ZM1.5 4.5H3.75V5.625H1.5C1.29375 5.625 1.125 5.79375 1.125 6V12C1.125 12.2063 1.29375 12.375 1.5 12.375H6C6.20625 12.375 6.375 12.2063 6.375 12V11.25H7.5V12C7.5 12.8273 6.82734 13.5 6 13.5H1.5C0.672656 13.5 0 12.8273 0 12V6C0 5.17266 0.672656 4.5 1.5 4.5Z" fill="#9CA3AF"/>
</svg>
