<svg width="14" height="15" viewBox="0 0 14 15" fill="none" xmlns="http://www.w3.org/2000/svg">
<path d="M5.90625 0H8.09375C8.44922 0 8.75 0.300781 8.75 0.65625V5.25H11.1289C11.6211 5.25 11.8672 5.85156 11.5117 6.20703L7.35547 10.3633C7.16406 10.5547 6.80859 10.5547 6.61719 10.3633L2.46094 6.20703C2.10547 5.85156 2.35156 5.25 2.84375 5.25H5.25V0.65625C5.25 0.300781 5.52344 0 5.90625 0ZM14 10.2812V13.3438C14 13.7266 13.6992 14 13.3438 14H0.65625C0.273438 14 0 13.7266 0 13.3438V10.2812C0 9.92578 0.273438 9.625 0.65625 9.625H4.64844L5.98828 10.9648C6.53516 11.5391 7.4375 11.5391 7.98438 10.9648L9.32422 9.625H13.3438C13.6992 9.625 14 9.92578 14 10.2812ZM10.6094 12.6875C10.6094 12.3867 10.3633 12.1406 10.0625 12.1406C9.76172 12.1406 9.51562 12.3867 9.51562 12.6875C9.51562 12.9883 9.76172 13.2344 10.0625 13.2344C10.3633 13.2344 10.6094 12.9883 10.6094 12.6875ZM12.3594 12.6875C12.3594 12.3867 12.1133 12.1406 11.8125 12.1406C11.5117 12.1406 11.2656 12.3867 11.2656 12.6875C11.2656 12.9883 11.5117 13.2344 11.8125 13.2344C12.1133 13.2344 12.3594 12.9883 12.3594 12.6875Z" fill="#6B7280"/>
</svg>
