<svg width="229" height="134" viewBox="0 0 229 134" fill="none" xmlns="http://www.w3.org/2000/svg">
<g filter="url(#filter0_dd_2_981)">
<g clip-path="url(#clip0_2_981)">
<rect x="82.1798" y="2" width="64" height="64" rx="16" fill="#19C37D"/>
<g opacity="0.1">
<path d="M82.1798 34H101.38L107.78 14.8L120.58 53.2L126.98 34H146.18" stroke="white" stroke-width="1.28"/>
</g>
<g opacity="0.4" filter="url(#filter1_f_2_981)">
<path d="M112.557 46.4863L101.969 36.6015C101.723 36.373 101.488 36.1269 101.272 35.8749H106.369C107.693 35.8749 108.889 35.0781 109.399 33.8535L110.014 32.3769L112.902 38.7929C113.125 39.291 113.611 39.6132 114.156 39.6191C114.701 39.6249 115.199 39.3261 115.445 38.8398L117.93 33.8652L118.029 34.0644C118.586 35.1777 119.723 35.8808 120.965 35.8808H127.088C126.871 36.1328 126.637 36.3789 126.391 36.6074L115.803 46.4863C115.363 46.8964 114.783 47.1249 114.18 47.1249C113.576 47.1249 112.996 46.8964 112.557 46.4863ZM128.693 33.0624H120.959C120.783 33.0624 120.619 32.9628 120.537 32.8046L119.178 30.0917C118.938 29.6171 118.451 29.3124 117.918 29.3124C117.385 29.3124 116.899 29.6113 116.658 30.0917L114.233 34.9433L111.244 28.2695C111.016 27.7597 110.5 27.4316 109.943 27.4433C109.387 27.455 108.883 27.789 108.666 28.3105L106.803 32.7812C106.733 32.957 106.557 33.0683 106.369 33.0683H100.117C99.965 33.0683 99.8243 33.0917 99.6896 33.1328C99.3556 32.1953 99.1798 31.1992 99.1798 30.1855V29.8457C99.1798 25.7499 102.139 22.2578 106.176 21.5839C108.848 21.1386 111.567 22.0117 113.477 23.9218L114.18 24.6249L114.883 23.9218C116.793 22.0117 119.512 21.1386 122.184 21.5839C126.221 22.2578 129.18 25.7499 129.18 29.8457V30.1855C129.18 31.1757 129.016 32.1484 128.693 33.0624Z" fill="white"/>
</g>
<g opacity="0.8">
<path d="M125.738 18.9629C127.086 17.6699 128.914 16.875 130.93 16.875C132.945 16.875 134.774 17.6699 136.121 18.9629C136.371 19.2012 136.766 19.1934 137.004 18.9453C137.242 18.6973 137.234 18.3008 136.986 18.0625C135.416 16.5527 133.281 15.625 130.93 15.625C128.578 15.625 126.443 16.5527 124.871 18.0605C124.623 18.3008 124.615 18.6953 124.854 18.9453C125.092 19.1953 125.488 19.2031 125.736 18.9629H125.738ZM130.93 20C132.039 20 133.051 20.4121 133.824 21.0938C134.084 21.3223 134.479 21.2969 134.707 21.0391C134.936 20.7813 134.91 20.3848 134.652 20.1562C133.66 19.2813 132.356 18.75 130.93 18.75C129.504 18.75 128.199 19.2813 127.209 20.1562C126.949 20.3848 126.926 20.7793 127.154 21.0391C127.383 21.2988 127.777 21.3223 128.037 21.0938C128.809 20.4121 129.82 20 130.932 20H130.93ZM132.18 23.125C132.18 22.7935 132.048 22.4755 131.814 22.2411C131.579 22.0067 131.261 21.875 130.93 21.875C130.598 21.875 130.28 22.0067 130.046 22.2411C129.812 22.4755 129.68 22.7935 129.68 23.125C129.68 23.4565 129.812 23.7745 130.046 24.0089C130.28 24.2433 130.598 24.375 130.93 24.375C131.261 24.375 131.579 24.2433 131.814 24.0089C132.048 23.7745 132.18 23.4565 132.18 23.125Z" fill="white"/>
</g>
<path d="M112.557 46.4863L101.969 36.6015C101.723 36.373 101.488 36.1269 101.272 35.8749H106.369C107.693 35.8749 108.889 35.0781 109.399 33.8535L110.014 32.3769L112.902 38.7929C113.125 39.291 113.611 39.6132 114.156 39.6191C114.701 39.6249 115.199 39.3261 115.445 38.8398L117.93 33.8652L118.029 34.0644C118.586 35.1777 119.723 35.8808 120.965 35.8808H127.088C126.871 36.1328 126.637 36.3789 126.391 36.6074L115.803 46.4863C115.363 46.8964 114.783 47.1249 114.18 47.1249C113.576 47.1249 112.996 46.8964 112.557 46.4863ZM128.693 33.0624H120.959C120.783 33.0624 120.619 32.9628 120.537 32.8046L119.178 30.0917C118.938 29.6171 118.451 29.3124 117.918 29.3124C117.385 29.3124 116.899 29.6113 116.658 30.0917L114.233 34.9433L111.244 28.2695C111.016 27.7597 110.5 27.4316 109.943 27.4433C109.387 27.455 108.883 27.789 108.666 28.3105L106.803 32.7812C106.733 32.957 106.557 33.0683 106.369 33.0683H100.117C99.965 33.0683 99.8243 33.0917 99.6896 33.1328C99.3556 32.1953 99.1798 31.1992 99.1798 30.1855V29.8457C99.1798 25.7499 102.139 22.2578 106.176 21.5839C108.848 21.1386 111.567 22.0117 113.477 23.9218L114.18 24.6249L114.883 23.9218C116.793 22.0117 119.512 21.1386 122.184 21.5839C126.221 22.2578 129.18 25.7499 129.18 29.8457V30.1855C129.18 31.1757 129.016 32.1484 128.693 33.0624Z" fill="white"/>
</g>
</g>
<path d="M78.3559 85.5455V103H74.7764L67.8304 92.9261H67.7196V103H63.5008V85.5455H67.1315L74.0008 95.6023H74.1457V85.5455H78.3559ZM86.528 103.247C85.1586 103.247 83.9768 102.977 82.9825 102.438C81.9939 101.892 81.2325 101.116 80.6984 100.111C80.17 99.0994 79.9058 97.8977 79.9058 96.5057C79.9058 95.1534 80.1728 93.9716 80.7069 92.9602C81.241 91.9432 81.9939 91.1534 82.9655 90.5909C83.9371 90.0227 85.0819 89.7386 86.4001 89.7386C87.3319 89.7386 88.1842 89.8835 88.9569 90.1733C89.7297 90.4631 90.3973 90.892 90.9598 91.4602C91.5223 92.0284 91.9598 92.7301 92.2723 93.5653C92.5848 94.3949 92.741 95.3466 92.741 96.4205V97.4602H81.3632V95.0398H88.8632C88.8575 94.5966 88.7524 94.2017 88.5478 93.8551C88.3433 93.5085 88.0621 93.2386 87.7041 93.0455C87.3518 92.8466 86.9456 92.7472 86.4853 92.7472C86.0194 92.7472 85.6018 92.8523 85.2325 93.0625C84.8632 93.267 84.5706 93.5483 84.3547 93.9062C84.1388 94.2585 84.0251 94.6591 84.0138 95.108V97.571C84.0138 98.1051 84.1189 98.5739 84.3291 98.9773C84.5393 99.375 84.8376 99.6847 85.224 99.9062C85.6103 100.128 86.0706 100.239 86.6047 100.239C86.974 100.239 87.3092 100.187 87.6103 100.085C87.9115 99.983 88.17 99.8324 88.3859 99.6335C88.6018 99.4347 88.7638 99.1903 88.8717 98.9006L92.6984 99.0114C92.5393 99.8693 92.1899 100.616 91.6501 101.253C91.116 101.884 90.4143 102.375 89.545 102.727C88.6757 103.074 87.67 103.247 86.528 103.247ZM101.659 89.9091V92.9773H93.4003V89.9091H101.659ZM95.1304 86.7727H99.298V98.8835C99.298 99.1392 99.3378 99.3466 99.4173 99.5057C99.5025 99.6591 99.6247 99.7699 99.7838 99.8381C99.9429 99.9006 100.133 99.9318 100.355 99.9318C100.514 99.9318 100.682 99.9176 100.858 99.8892C101.039 99.8551 101.176 99.8267 101.267 99.804L101.897 102.812C101.699 102.869 101.417 102.94 101.054 103.026C100.696 103.111 100.267 103.165 99.7667 103.188C98.7895 103.233 97.9514 103.119 97.2525 102.847C96.5594 102.568 96.0281 102.136 95.6588 101.551C95.2951 100.966 95.119 100.23 95.1304 99.3438V86.7727Z" fill="#0F172A"/>
<path d="M103.466 103V85.5455H110.677C111.984 85.5455 113.111 85.8011 114.06 86.3125C115.015 86.8182 115.751 87.5256 116.268 88.4347C116.785 89.3381 117.043 90.3892 117.043 91.5881C117.043 92.7926 116.779 93.8466 116.251 94.75C115.728 95.6477 114.981 96.3437 114.009 96.8381C113.037 97.3324 111.884 97.5795 110.549 97.5795H106.1V94.2557H109.765C110.401 94.2557 110.932 94.1449 111.359 93.9233C111.79 93.7017 112.117 93.392 112.339 92.9943C112.56 92.5909 112.671 92.1222 112.671 91.5881C112.671 91.0483 112.56 90.5824 112.339 90.1903C112.117 89.7926 111.79 89.4858 111.359 89.2699C110.927 89.054 110.395 88.946 109.765 88.946H107.685V103H103.466ZM126.969 97.3494V89.9091H131.128V103H127.156V100.562H127.02C126.73 101.364 126.236 102 125.537 102.472C124.844 102.937 124.006 103.17 123.023 103.17C122.131 103.17 121.347 102.966 120.67 102.557C119.994 102.148 119.469 101.577 119.094 100.844C118.719 100.105 118.528 99.2415 118.523 98.2528V89.9091H122.69V97.4347C122.696 98.1449 122.884 98.7045 123.253 99.1136C123.622 99.5227 124.125 99.7273 124.761 99.7273C125.176 99.7273 125.548 99.6364 125.878 99.4545C126.213 99.267 126.477 98.9972 126.67 98.6449C126.869 98.2869 126.969 97.8551 126.969 97.3494ZM137.348 85.5455V103H133.181V85.5455H137.348ZM150.83 93.9062L147.003 94.0085C146.963 93.7358 146.855 93.4943 146.679 93.2841C146.503 93.0682 146.273 92.9006 145.989 92.7812C145.71 92.6562 145.387 92.5938 145.017 92.5938C144.534 92.5938 144.122 92.6903 143.782 92.8835C143.446 93.0767 143.282 93.3381 143.287 93.6676C143.282 93.9233 143.384 94.1449 143.594 94.3324C143.81 94.5199 144.193 94.6705 144.745 94.7841L147.267 95.2614C148.574 95.5114 149.546 95.9261 150.182 96.5057C150.824 97.0852 151.148 97.8523 151.154 98.8068C151.148 99.7045 150.881 100.486 150.353 101.151C149.83 101.815 149.114 102.332 148.205 102.702C147.296 103.065 146.256 103.247 145.085 103.247C143.216 103.247 141.742 102.864 140.662 102.097C139.588 101.324 138.975 100.29 138.821 98.9943L142.938 98.892C143.029 99.3693 143.264 99.733 143.645 99.983C144.026 100.233 144.512 100.358 145.103 100.358C145.637 100.358 146.071 100.259 146.407 100.06C146.742 99.8608 146.912 99.5966 146.918 99.267C146.912 98.9716 146.782 98.7358 146.526 98.5597C146.27 98.3778 145.87 98.2358 145.324 98.1335L143.04 97.6989C141.728 97.4602 140.75 97.0199 140.108 96.3778C139.466 95.7301 139.148 94.9062 139.154 93.9062C139.148 93.0312 139.381 92.2841 139.853 91.6648C140.324 91.0398 140.995 90.5625 141.864 90.233C142.733 89.9034 143.759 89.7386 144.941 89.7386C146.713 89.7386 148.111 90.1108 149.134 90.8551C150.157 91.5937 150.722 92.6108 150.83 93.9062ZM158.725 103.247C157.356 103.247 156.174 102.977 155.179 102.438C154.191 101.892 153.429 101.116 152.895 100.111C152.367 99.0994 152.103 97.8977 152.103 96.5057C152.103 95.1534 152.37 93.9716 152.904 92.9602C153.438 91.9432 154.191 91.1534 155.162 90.5909C156.134 90.0227 157.279 89.7386 158.597 89.7386C159.529 89.7386 160.381 89.8835 161.154 90.1733C161.927 90.4631 162.594 90.892 163.157 91.4602C163.719 92.0284 164.157 92.7301 164.469 93.5653C164.782 94.3949 164.938 95.3466 164.938 96.4205V97.4602H153.56V95.0398H161.06C161.054 94.5966 160.949 94.2017 160.745 93.8551C160.54 93.5085 160.259 93.2386 159.901 93.0455C159.549 92.8466 159.142 92.7472 158.682 92.7472C158.216 92.7472 157.799 92.8523 157.429 93.0625C157.06 93.267 156.767 93.5483 156.552 93.9062C156.336 94.2585 156.222 94.6591 156.211 95.108V97.571C156.211 98.1051 156.316 98.5739 156.526 98.9773C156.736 99.375 157.035 99.6847 157.421 99.9062C157.807 100.128 158.267 100.239 158.802 100.239C159.171 100.239 159.506 100.187 159.807 100.085C160.108 99.983 160.367 99.8324 160.583 99.6335C160.799 99.4347 160.961 99.1903 161.069 98.9006L164.895 99.0114C164.736 99.8693 164.387 100.616 163.847 101.253C163.313 101.884 162.611 102.375 161.742 102.727C160.873 103.074 159.867 103.247 158.725 103.247Z" fill="#19C37D"/>
<rect y="123.5" width="16" height="1" fill="#CBD5E1"/>
<path d="M33.4013 118.818V129H31.5419L27.1122 122.592H27.0376V129H24.8849V118.818H26.7741L31.169 125.222H31.2585V118.818H33.4013ZM50.1364 123.909C50.1364 125.019 49.9259 125.964 49.505 126.743C49.0874 127.522 48.5173 128.117 47.7948 128.528C47.0756 128.935 46.2668 129.139 45.3686 129.139C44.4638 129.139 43.6518 128.934 42.9326 128.523C42.2133 128.112 41.6449 127.517 41.2273 126.738C40.8097 125.959 40.6009 125.016 40.6009 123.909C40.6009 122.799 40.8097 121.854 41.2273 121.075C41.6449 120.296 42.2133 119.703 42.9326 119.295C43.6518 118.884 44.4638 118.679 45.3686 118.679C46.2668 118.679 47.0756 118.884 47.7948 119.295C48.5173 119.703 49.0874 120.296 49.505 121.075C49.9259 121.854 50.1364 122.799 50.1364 123.909ZM47.9539 123.909C47.9539 123.19 47.8462 122.583 47.6307 122.089C47.4186 121.596 47.1186 121.221 46.7309 120.966C46.3431 120.711 45.889 120.583 45.3686 120.583C44.8483 120.583 44.3942 120.711 44.0064 120.966C43.6186 121.221 43.317 121.596 43.1016 122.089C42.8895 122.583 42.7834 123.19 42.7834 123.909C42.7834 124.628 42.8895 125.235 43.1016 125.729C43.317 126.223 43.6186 126.597 44.0064 126.852C44.3942 127.107 44.8483 127.235 45.3686 127.235C45.889 127.235 46.3431 127.107 46.7309 126.852C47.1186 126.597 47.4186 126.223 47.6307 125.729C47.8462 125.235 47.9539 124.628 47.9539 123.909ZM66.3147 122.383H64.1371C64.0974 122.101 64.0162 121.851 63.8935 121.632C63.7709 121.41 63.6135 121.221 63.4212 121.065C63.229 120.91 63.0069 120.79 62.755 120.707C62.5065 120.625 62.2363 120.583 61.9447 120.583C61.4177 120.583 60.9586 120.714 60.5675 120.976C60.1764 121.234 59.8732 121.612 59.6577 122.109C59.4423 122.603 59.3346 123.203 59.3346 123.909C59.3346 124.635 59.4423 125.245 59.6577 125.739C59.8765 126.232 60.1814 126.605 60.5725 126.857C60.9636 127.109 61.416 127.235 61.9298 127.235C62.2181 127.235 62.4849 127.197 62.7302 127.121C62.9788 127.045 63.1992 126.933 63.3914 126.788C63.5836 126.638 63.7427 126.458 63.8687 126.246C63.9979 126.034 64.0874 125.792 64.1371 125.52L66.3147 125.53C66.2584 125.997 66.1175 126.448 65.8921 126.882C65.6701 127.313 65.3701 127.699 64.9923 128.04C64.6177 128.379 64.1703 128.647 63.6499 128.846C63.1329 129.041 62.5479 129.139 61.895 129.139C60.9868 129.139 60.1748 128.934 59.4589 128.523C58.7463 128.112 58.1828 127.517 57.7685 126.738C57.3576 125.959 57.1521 125.016 57.1521 123.909C57.1521 122.799 57.3609 121.854 57.7785 121.075C58.1961 120.296 58.7629 119.703 59.4788 119.295C60.1947 118.884 61.0001 118.679 61.895 118.679C62.4849 118.679 63.0318 118.762 63.5356 118.928C64.0427 119.093 64.4918 119.335 64.8829 119.653C65.274 119.968 65.5922 120.354 65.8374 120.812C66.086 121.269 66.2451 121.793 66.3147 122.383ZM91.6552 123.909C91.6552 125.019 91.4447 125.964 91.0238 126.743C90.6061 127.522 90.0361 128.117 89.3135 128.528C88.5943 128.935 87.7856 129.139 86.8874 129.139C85.9826 129.139 85.1705 128.934 84.4513 128.523C83.7321 128.112 83.1637 127.517 82.7461 126.738C82.3284 125.959 82.1196 125.016 82.1196 123.909C82.1196 122.799 82.3284 121.854 82.7461 121.075C83.1637 120.296 83.7321 119.703 84.4513 119.295C85.1705 118.884 85.9826 118.679 86.8874 118.679C87.7856 118.679 88.5943 118.884 89.3135 119.295C90.0361 119.703 90.6061 120.296 91.0238 121.075C91.4447 121.854 91.6552 122.799 91.6552 123.909ZM89.4726 123.909C89.4726 123.19 89.3649 122.583 89.1495 122.089C88.9373 121.596 88.6374 121.221 88.2496 120.966C87.8618 120.711 87.4078 120.583 86.8874 120.583C86.367 120.583 85.913 120.711 85.5252 120.966C85.1374 121.221 84.8358 121.596 84.6203 122.089C84.4082 122.583 84.3022 123.19 84.3022 123.909C84.3022 124.628 84.4082 125.235 84.6203 125.729C84.8358 126.223 85.1374 126.597 85.5252 126.852C85.913 127.107 86.367 127.235 86.8874 127.235C87.4078 127.235 87.8618 127.107 88.2496 126.852C88.6374 126.597 88.9373 126.223 89.1495 125.729C89.3649 125.235 89.4726 124.628 89.4726 123.909ZM98.8498 129V118.818H102.867C103.639 118.818 104.297 118.966 104.841 119.261C105.384 119.552 105.798 119.958 106.083 120.479C106.372 120.996 106.516 121.592 106.516 122.268C106.516 122.945 106.37 123.541 106.078 124.058C105.787 124.575 105.364 124.978 104.811 125.266C104.261 125.555 103.594 125.699 102.812 125.699H100.252V123.974H102.464C102.878 123.974 103.22 123.902 103.488 123.76C103.76 123.614 103.962 123.414 104.095 123.158C104.231 122.9 104.299 122.603 104.299 122.268C104.299 121.93 104.231 121.635 104.095 121.384C103.962 121.128 103.76 120.931 103.488 120.792C103.217 120.649 102.872 120.578 102.454 120.578H101.002V129H98.8498ZM113.514 129V118.818H120.375V120.593H115.667V123.019H120.022V124.794H115.667V127.225H120.395V129H113.514ZM127.687 129V118.818H131.704C132.472 118.818 133.129 118.956 133.672 119.231C134.219 119.503 134.635 119.889 134.92 120.389C135.209 120.886 135.353 121.471 135.353 122.144C135.353 122.82 135.207 123.402 134.915 123.889C134.624 124.373 134.201 124.744 133.647 125.003C133.097 125.261 132.431 125.391 131.649 125.391H128.959V123.661H131.301C131.712 123.661 132.053 123.604 132.325 123.491C132.597 123.379 132.799 123.21 132.932 122.984C133.067 122.759 133.135 122.479 133.135 122.144C133.135 121.806 133.067 121.521 132.932 121.289C132.799 121.057 132.595 120.881 132.32 120.762C132.048 120.639 131.705 120.578 131.291 120.578H129.839V129H127.687ZM133.185 124.366L135.716 129H133.339L130.863 124.366H133.185ZM144.229 129H141.922L145.437 118.818H148.211L151.721 129H149.414L146.864 121.145H146.784L144.229 129ZM144.085 124.998H149.534V126.678H144.085V124.998ZM156.915 120.593V118.818H165.277V120.593H162.16V129H160.032V120.593H156.915ZM174.407 118.818V129H172.254V118.818H174.407ZM191.134 123.909C191.134 125.019 190.924 125.964 190.503 126.743C190.085 127.522 189.515 128.117 188.793 128.528C188.074 128.935 187.265 129.139 186.367 129.139C185.462 129.139 184.65 128.934 183.931 128.523C183.211 128.112 182.643 127.517 182.225 126.738C181.808 125.959 181.599 125.016 181.599 123.909C181.599 122.799 181.808 121.854 182.225 121.075C182.643 120.296 183.211 119.703 183.931 119.295C184.65 118.884 185.462 118.679 186.367 118.679C187.265 118.679 188.074 118.884 188.793 119.295C189.515 119.703 190.085 120.296 190.503 121.075C190.924 121.854 191.134 122.799 191.134 123.909ZM188.952 123.909C188.952 123.19 188.844 122.583 188.629 122.089C188.417 121.596 188.117 121.221 187.729 120.966C187.341 120.711 186.887 120.583 186.367 120.583C185.846 120.583 185.392 120.711 185.004 120.966C184.617 121.221 184.315 121.596 184.1 122.089C183.888 122.583 183.781 123.19 183.781 123.909C183.781 124.628 183.888 125.235 184.1 125.729C184.315 126.223 184.617 126.597 185.004 126.852C185.392 127.107 185.846 127.235 186.367 127.235C186.887 127.235 187.341 127.107 187.729 126.852C188.117 126.597 188.417 126.223 188.629 125.729C188.844 125.235 188.952 124.628 188.952 123.909ZM206.845 118.818V129H204.986L200.556 122.592H200.482V129H198.329V118.818H200.218L204.613 125.222H204.703V118.818H206.845ZM219.747 121.746C219.708 121.345 219.537 121.034 219.235 120.812C218.934 120.59 218.524 120.479 218.007 120.479C217.656 120.479 217.359 120.528 217.117 120.628C216.876 120.724 216.69 120.858 216.561 121.031C216.435 121.203 216.372 121.398 216.372 121.617C216.365 121.799 216.403 121.959 216.486 122.094C216.572 122.23 216.69 122.348 216.839 122.447C216.988 122.544 217.161 122.628 217.356 122.701C217.552 122.771 217.76 122.83 217.983 122.88L218.897 123.099C219.341 123.198 219.749 123.331 220.12 123.496C220.492 123.662 220.813 123.866 221.085 124.108C221.357 124.35 221.567 124.635 221.716 124.963C221.869 125.291 221.947 125.667 221.95 126.092C221.947 126.715 221.787 127.255 221.473 127.712C221.161 128.166 220.71 128.519 220.12 128.771C219.534 129.02 218.826 129.144 217.997 129.144C217.175 129.144 216.46 129.018 215.85 128.766C215.243 128.514 214.769 128.142 214.428 127.648C214.09 127.151 213.912 126.536 213.896 125.803H215.979C216.002 126.145 216.1 126.43 216.272 126.658C216.448 126.884 216.682 127.054 216.973 127.17C217.268 127.283 217.601 127.339 217.973 127.339C218.337 127.339 218.654 127.286 218.922 127.18C219.194 127.074 219.404 126.927 219.554 126.738C219.703 126.549 219.777 126.332 219.777 126.087C219.777 125.858 219.709 125.666 219.573 125.51C219.441 125.354 219.245 125.222 218.987 125.112C218.732 125.003 218.418 124.903 218.047 124.814L216.938 124.536C216.08 124.327 215.402 124 214.905 123.556C214.408 123.112 214.161 122.514 214.164 121.761C214.161 121.145 214.325 120.606 214.657 120.146C214.991 119.685 215.45 119.325 216.034 119.067C216.617 118.808 217.28 118.679 218.022 118.679C218.778 118.679 219.438 118.808 220.001 119.067C220.568 119.325 221.009 119.685 221.323 120.146C221.638 120.606 221.801 121.14 221.811 121.746H219.747Z" fill="#94A3B8"/>
<defs>
<filter id="filter0_dd_2_981" x="70.1798" y="0" width="88" height="88" filterUnits="userSpaceOnUse" color-interpolation-filters="sRGB">
<feFlood flood-opacity="0" result="BackgroundImageFix"/>
<feColorMatrix in="SourceAlpha" type="matrix" values="0 0 0 0 0 0 0 0 0 0 0 0 0 0 0 0 0 0 127 0" result="hardAlpha"/>
<feMorphology radius="4" operator="erode" in="SourceAlpha" result="effect1_dropShadow_2_981"/>
<feOffset dy="4"/>
<feGaussianBlur stdDeviation="3"/>
<feComposite in2="hardAlpha" operator="out"/>
<feColorMatrix type="matrix" values="0 0 0 0 0.0980392 0 0 0 0 0.764706 0 0 0 0 0.490196 0 0 0 0.2 0"/>
<feBlend mode="normal" in2="BackgroundImageFix" result="effect1_dropShadow_2_981"/>
<feColorMatrix in="SourceAlpha" type="matrix" values="0 0 0 0 0 0 0 0 0 0 0 0 0 0 0 0 0 0 127 0" result="hardAlpha"/>
<feMorphology radius="3" operator="erode" in="SourceAlpha" result="effect2_dropShadow_2_981"/>
<feOffset dy="10"/>
<feGaussianBlur stdDeviation="7.5"/>
<feComposite in2="hardAlpha" operator="out"/>
<feColorMatrix type="matrix" values="0 0 0 0 0.0980392 0 0 0 0 0.764706 0 0 0 0 0.490196 0 0 0 0.2 0"/>
<feBlend mode="normal" in2="effect1_dropShadow_2_981" result="effect2_dropShadow_2_981"/>
<feBlend mode="normal" in="SourceGraphic" in2="effect2_dropShadow_2_981" result="shape"/>
</filter>
<filter id="filter1_f_2_981" x="98.1798" y="18" width="32" height="32" filterUnits="userSpaceOnUse" color-interpolation-filters="sRGB">
<feFlood flood-opacity="0" result="BackgroundImageFix"/>
<feBlend mode="normal" in="SourceGraphic" in2="BackgroundImageFix" result="shape"/>
<feGaussianBlur stdDeviation="0.5" result="effect1_foregroundBlur_2_981"/>
</filter>
<clipPath id="clip0_2_981">
<rect x="82.1798" y="2" width="64" height="64" rx="16" fill="white"/>
</clipPath>
</defs>
</svg>
