<svg width="325" height="88" viewBox="0 0 325 88" fill="none" xmlns="http://www.w3.org/2000/svg">
<g filter="url(#filter0_dd_2_814)">
<g clip-path="url(#clip0_2_814)">
<rect x="12" y="2" width="64" height="64" rx="16" fill="#19C37D"/>
<g opacity="0.1" clip-path="url(#clip1_2_814)">
<path d="M12 34H31.2L37.6 14.8L50.4 53.2L56.8 34H76" stroke="white" stroke-width="1.28"/>
</g>
<g opacity="0.4" filter="url(#filter1_f_2_814)">
<path d="M42.377 46.4863L31.7891 36.6015C31.543 36.373 31.3086 36.1269 31.0918 35.8749H36.1895C37.5137 35.8749 38.709 35.0781 39.2188 33.8535L39.834 32.3769L42.7227 38.7929C42.9453 39.291 43.4316 39.6132 43.9766 39.6191C44.5215 39.6249 45.0195 39.3261 45.2656 38.8398L47.75 33.8652L47.8496 34.0644C48.4062 35.1777 49.543 35.8808 50.7852 35.8808H56.9082C56.6914 36.1328 56.457 36.3789 56.2109 36.6074L45.623 46.4863C45.1836 46.8964 44.6035 47.1249 44 47.1249C43.3965 47.1249 42.8164 46.8964 42.377 46.4863ZM58.5137 33.0624H50.7793C50.6035 33.0624 50.4395 32.9628 50.3574 32.8046L48.998 30.0917C48.7578 29.6171 48.2715 29.3124 47.7383 29.3124C47.2051 29.3124 46.7188 29.6113 46.4785 30.0917L44.0527 34.9433L41.0645 28.2695C40.8359 27.7597 40.3203 27.4316 39.7637 27.4433C39.207 27.455 38.7031 27.789 38.4863 28.3105L36.623 32.7812C36.5527 32.957 36.377 33.0683 36.1895 33.0683H29.9375C29.7852 33.0683 29.6445 33.0917 29.5098 33.1328C29.1758 32.1953 29 31.1992 29 30.1855V29.8457C29 25.7499 31.959 22.2578 35.9961 21.5839C38.668 21.1386 41.3867 22.0117 43.2969 23.9218L44 24.6249L44.7031 23.9218C46.6133 22.0117 49.332 21.1386 52.0039 21.5839C56.041 22.2578 59 25.7499 59 29.8457V30.1855C59 31.1757 58.8359 32.1484 58.5137 33.0624Z" fill="white"/>
</g>
<g opacity="0.8">
<path d="M55.5586 18.9629C56.9063 17.6699 58.7344 16.875 60.75 16.875C62.7656 16.875 64.5938 17.6699 65.9414 18.9629C66.1914 19.2012 66.5859 19.1934 66.8242 18.9453C67.0625 18.6973 67.0547 18.3008 66.8066 18.0625C65.2363 16.5527 63.1016 15.625 60.75 15.625C58.3984 15.625 56.2637 16.5527 54.6914 18.0605C54.4434 18.3008 54.4355 18.6953 54.6738 18.9453C54.9121 19.1953 55.3086 19.2031 55.5566 18.9629H55.5586ZM60.75 20C61.8594 20 62.8711 20.4121 63.6445 21.0938C63.9043 21.3223 64.2988 21.2969 64.5273 21.0391C64.7559 20.7813 64.7305 20.3848 64.4727 20.1562C63.4805 19.2812 62.1758 18.75 60.75 18.75C59.3242 18.75 58.0195 19.2812 57.0293 20.1562C56.7695 20.3848 56.7461 20.7793 56.9746 21.0391C57.2031 21.2988 57.5977 21.3223 57.8574 21.0938C58.6289 20.4121 59.6406 20 60.752 20H60.75ZM62 23.125C62 22.7935 61.8683 22.4755 61.6339 22.2411C61.3995 22.0067 61.0815 21.875 60.75 21.875C60.4185 21.875 60.1005 22.0067 59.8661 22.2411C59.6317 22.4755 59.5 22.7935 59.5 23.125C59.5 23.4565 59.6317 23.7745 59.8661 24.0089C60.1005 24.2433 60.4185 24.375 60.75 24.375C61.0815 24.375 61.3995 24.2433 61.6339 24.0089C61.8683 23.7745 62 23.4565 62 23.125Z" fill="white"/>
</g>
<path d="M42.377 46.4863L31.7891 36.6015C31.543 36.373 31.3086 36.1269 31.0918 35.8749H36.1895C37.5137 35.8749 38.709 35.0781 39.2188 33.8535L39.834 32.3769L42.7227 38.7929C42.9453 39.291 43.4316 39.6132 43.9766 39.6191C44.5215 39.6249 45.0195 39.3261 45.2656 38.8398L47.75 33.8652L47.8496 34.0644C48.4062 35.1777 49.543 35.8808 50.7852 35.8808H56.9082C56.6914 36.1328 56.457 36.3789 56.2109 36.6074L45.623 46.4863C45.1836 46.8964 44.6035 47.1249 44 47.1249C43.3965 47.1249 42.8164 46.8964 42.377 46.4863ZM58.5137 33.0624H50.7793C50.6035 33.0624 50.4395 32.9628 50.3574 32.8046L48.998 30.0917C48.7578 29.6171 48.2715 29.3124 47.7383 29.3124C47.2051 29.3124 46.7188 29.6113 46.4785 30.0917L44.0527 34.9433L41.0645 28.2695C40.8359 27.7597 40.3203 27.4316 39.7637 27.4433C39.207 27.455 38.7031 27.789 38.4863 28.3105L36.623 32.7812C36.5527 32.957 36.377 33.0683 36.1895 33.0683H29.9375C29.7852 33.0683 29.6445 33.0917 29.5098 33.1328C29.1758 32.1953 29 31.1992 29 30.1855V29.8457C29 25.7499 31.959 22.2578 35.9961 21.5839C38.668 21.1386 41.3867 22.0117 43.2969 23.9218L44 24.6249L44.7031 23.9218C46.6133 22.0117 49.332 21.1386 52.0039 21.5839C56.041 22.2578 59 25.7499 59 29.8457V30.1855C59 31.1757 58.8359 32.1484 58.5137 33.0624Z" fill="white"/>
</g>
</g>
<path d="M98.376 35V8.18H102.66L117.06 27.152L114.756 27.692V8.18H120.336V35H116.016L101.868 15.884L103.956 15.344V35H98.376ZM133.267 35.432C131.179 35.432 129.367 34.976 127.831 34.064C126.295 33.128 125.107 31.88 124.267 30.32C123.427 28.76 123.007 27.032 123.007 25.136C123.007 23.168 123.439 21.416 124.303 19.88C125.191 18.344 126.379 17.132 127.867 16.244C129.355 15.356 131.035 14.912 132.907 14.912C134.467 14.912 135.847 15.164 137.047 15.668C138.247 16.148 139.255 16.832 140.071 17.72C140.911 18.608 141.547 19.64 141.979 20.816C142.411 21.968 142.627 23.228 142.627 24.596C142.627 24.98 142.603 25.364 142.555 25.748C142.531 26.108 142.471 26.42 142.375 26.684H127.651V22.724H139.315L136.759 24.596C136.999 23.564 136.987 22.652 136.723 21.86C136.459 21.044 135.991 20.408 135.319 19.952C134.671 19.472 133.867 19.232 132.907 19.232C131.971 19.232 131.167 19.46 130.495 19.916C129.823 20.372 129.319 21.044 128.983 21.932C128.647 22.82 128.515 23.9 128.587 25.172C128.491 26.276 128.623 27.248 128.983 28.088C129.343 28.928 129.895 29.588 130.639 30.068C131.383 30.524 132.283 30.752 133.339 30.752C134.299 30.752 135.115 30.56 135.787 30.176C136.483 29.792 137.023 29.264 137.407 28.592L141.727 30.644C141.343 31.604 140.731 32.444 139.891 33.164C139.075 33.884 138.103 34.448 136.975 34.856C135.847 35.24 134.611 35.432 133.267 35.432ZM154.375 35.216C151.999 35.216 150.151 34.58 148.831 33.308C147.535 32.012 146.887 30.212 146.887 27.908V20.024H143.575V15.344H143.755C144.763 15.344 145.531 15.092 146.059 14.588C146.611 14.084 146.887 13.328 146.887 12.32V10.88H152.287V15.344H156.895V20.024H152.287V27.548C152.287 28.22 152.407 28.784 152.647 29.24C152.887 29.672 153.259 29.996 153.763 30.212C154.267 30.428 154.891 30.536 155.635 30.536C155.803 30.536 155.995 30.524 156.211 30.5C156.427 30.476 156.655 30.452 156.895 30.428V35C156.535 35.048 156.127 35.096 155.671 35.144C155.215 35.192 154.783 35.216 154.375 35.216Z" fill="#0F172A"/>
<path d="M165.376 35V8.18H175.672C177.52 8.18 179.152 8.504 180.568 9.152C182.008 9.8 183.136 10.76 183.952 12.032C184.768 13.304 185.176 14.876 185.176 16.748C185.176 18.572 184.756 20.12 183.916 21.392C183.1 22.664 181.972 23.636 180.532 24.308C179.116 24.956 177.496 25.28 175.672 25.28H170.956V35H165.376ZM170.956 20.42H175.708C176.5 20.42 177.184 20.264 177.76 19.952C178.336 19.64 178.78 19.208 179.092 18.656C179.428 18.104 179.596 17.468 179.596 16.748C179.596 16.004 179.428 15.356 179.092 14.804C178.78 14.252 178.336 13.82 177.76 13.508C177.184 13.196 176.5 13.04 175.708 13.04H170.956V20.42ZM194.515 35.432C192.931 35.432 191.575 35.096 190.447 34.424C189.343 33.728 188.503 32.768 187.927 31.544C187.351 30.32 187.063 28.892 187.063 27.26V15.344H192.463V26.828C192.463 27.572 192.607 28.232 192.895 28.808C193.207 29.36 193.639 29.792 194.191 30.104C194.743 30.416 195.367 30.572 196.063 30.572C196.783 30.572 197.407 30.416 197.935 30.104C198.487 29.792 198.907 29.36 199.195 28.808C199.507 28.232 199.663 27.572 199.663 26.828V15.344H205.063V35H200.023V31.112L200.311 31.976C199.855 33.152 199.111 34.028 198.079 34.604C197.071 35.156 195.883 35.432 194.515 35.432ZM208.11 35V7.748H213.51V35H208.11ZM224.265 35.432C222.105 35.432 220.221 34.928 218.613 33.92C217.029 32.888 215.949 31.508 215.373 29.78L219.333 27.908C219.837 28.964 220.521 29.792 221.385 30.392C222.249 30.992 223.209 31.292 224.265 31.292C225.033 31.292 225.621 31.136 226.029 30.824C226.437 30.512 226.641 30.08 226.641 29.528C226.641 29.24 226.569 29 226.425 28.808C226.281 28.592 226.065 28.4 225.777 28.232C225.489 28.064 225.129 27.92 224.697 27.8L221.349 26.864C219.741 26.408 218.505 25.676 217.641 24.668C216.777 23.636 216.345 22.424 216.345 21.032C216.345 19.808 216.657 18.74 217.281 17.828C217.905 16.916 218.781 16.208 219.909 15.704C221.037 15.176 222.333 14.912 223.797 14.912C225.717 14.912 227.397 15.368 228.837 16.28C230.301 17.168 231.333 18.428 231.933 20.06L227.937 21.932C227.649 21.116 227.121 20.468 226.353 19.988C225.609 19.484 224.757 19.232 223.797 19.232C223.101 19.232 222.549 19.376 222.141 19.664C221.757 19.952 221.565 20.348 221.565 20.852C221.565 21.116 221.637 21.356 221.781 21.572C221.925 21.788 222.153 21.98 222.465 22.148C222.801 22.316 223.209 22.472 223.689 22.616L226.821 23.552C228.453 24.032 229.701 24.764 230.565 25.748C231.429 26.708 231.861 27.896 231.861 29.312C231.861 30.536 231.537 31.604 230.889 32.516C230.265 33.428 229.389 34.148 228.261 34.676C227.133 35.18 225.801 35.432 224.265 35.432ZM243.657 35.432C241.569 35.432 239.757 34.976 238.221 34.064C236.685 33.128 235.497 31.88 234.657 30.32C233.817 28.76 233.397 27.032 233.397 25.136C233.397 23.168 233.829 21.416 234.693 19.88C235.581 18.344 236.769 17.132 238.257 16.244C239.745 15.356 241.425 14.912 243.297 14.912C244.857 14.912 246.237 15.164 247.437 15.668C248.637 16.148 249.645 16.832 250.461 17.72C251.301 18.608 251.937 19.64 252.369 20.816C252.801 21.968 253.017 23.228 253.017 24.596C253.017 24.98 252.993 25.364 252.945 25.748C252.921 26.108 252.861 26.42 252.765 26.684H238.041V22.724H249.705L247.149 24.596C247.389 23.564 247.377 22.652 247.113 21.86C246.849 21.044 246.381 20.408 245.709 19.952C245.061 19.472 244.257 19.232 243.297 19.232C242.361 19.232 241.557 19.46 240.885 19.916C240.213 20.372 239.709 21.044 239.373 21.932C239.037 22.82 238.905 23.9 238.977 25.172C238.881 26.276 239.013 27.248 239.373 28.088C239.733 28.928 240.285 29.588 241.029 30.068C241.773 30.524 242.673 30.752 243.729 30.752C244.689 30.752 245.505 30.56 246.177 30.176C246.873 29.792 247.413 29.264 247.797 28.592L252.117 30.644C251.733 31.604 251.121 32.444 250.281 33.164C249.465 33.884 248.493 34.448 247.365 34.856C246.237 35.24 245.001 35.432 243.657 35.432Z" fill="#19C37D"/>
<rect x="96" y="57.5" width="16" height="1" fill="#CBD5E1"/>
<path d="M129.401 52.8182V63H127.542L123.112 56.5916H123.038V63H120.885V52.8182H122.774L127.169 59.2216H127.259V52.8182H129.401ZM146.136 57.9091C146.136 59.0194 145.926 59.964 145.505 60.7429C145.087 61.5218 144.517 62.1167 143.795 62.5277C143.076 62.9354 142.267 63.1392 141.369 63.1392C140.464 63.1392 139.652 62.9337 138.933 62.5227C138.213 62.1117 137.645 61.5168 137.227 60.7379C136.81 59.959 136.601 59.0161 136.601 57.9091C136.601 56.7988 136.81 55.8542 137.227 55.0753C137.645 54.2964 138.213 53.7031 138.933 53.2955C139.652 52.8845 140.464 52.679 141.369 52.679C142.267 52.679 143.076 52.8845 143.795 53.2955C144.517 53.7031 145.087 54.2964 145.505 55.0753C145.926 55.8542 146.136 56.7988 146.136 57.9091ZM143.954 57.9091C143.954 57.1899 143.846 56.5833 143.631 56.0895C143.419 55.5956 143.119 55.2211 142.731 54.9659C142.343 54.7107 141.889 54.5831 141.369 54.5831C140.848 54.5831 140.394 54.7107 140.006 54.9659C139.619 55.2211 139.317 55.5956 139.102 56.0895C138.889 56.5833 138.783 57.1899 138.783 57.9091C138.783 58.6283 138.889 59.2348 139.102 59.7287C139.317 60.2225 139.619 60.5971 140.006 60.8523C140.394 61.1075 140.848 61.2351 141.369 61.2351C141.889 61.2351 142.343 61.1075 142.731 60.8523C143.119 60.5971 143.419 60.2225 143.631 59.7287C143.846 59.2348 143.954 58.6283 143.954 57.9091ZM162.315 56.3828H160.137C160.097 56.1011 160.016 55.8509 159.894 55.6321C159.771 55.41 159.613 55.2211 159.421 55.0653C159.229 54.9096 159.007 54.7902 158.755 54.7074C158.506 54.6245 158.236 54.5831 157.945 54.5831C157.418 54.5831 156.959 54.714 156.568 54.9759C156.176 55.2344 155.873 55.6122 155.658 56.1094C155.442 56.6032 155.335 57.2031 155.335 57.9091C155.335 58.6349 155.442 59.2448 155.658 59.7386C155.876 60.2325 156.181 60.6054 156.573 60.8572C156.964 61.1091 157.416 61.2351 157.93 61.2351C158.218 61.2351 158.485 61.197 158.73 61.1207C158.979 61.0445 159.199 60.9335 159.391 60.7876C159.584 60.6385 159.743 60.4579 159.869 60.2457C159.998 60.0336 160.087 59.7917 160.137 59.5199L162.315 59.5298C162.258 59.9972 162.117 60.4479 161.892 60.8821C161.67 61.313 161.37 61.6991 160.992 62.0405C160.618 62.3786 160.17 62.647 159.65 62.8459C159.133 63.0414 158.548 63.1392 157.895 63.1392C156.987 63.1392 156.175 62.9337 155.459 62.5227C154.746 62.1117 154.183 61.5168 153.769 60.7379C153.358 59.959 153.152 59.0161 153.152 57.9091C153.152 56.7988 153.361 55.8542 153.778 55.0753C154.196 54.2964 154.763 53.7031 155.479 53.2955C156.195 52.8845 157 52.679 157.895 52.679C158.485 52.679 159.032 52.7618 159.536 52.9276C160.043 53.0933 160.492 53.3352 160.883 53.6534C161.274 53.9683 161.592 54.3544 161.837 54.8118C162.086 55.2692 162.245 55.7929 162.315 56.3828ZM187.655 57.9091C187.655 59.0194 187.445 59.964 187.024 60.7429C186.606 61.5218 186.036 62.1167 185.314 62.5277C184.594 62.9354 183.786 63.1392 182.887 63.1392C181.983 63.1392 181.171 62.9337 180.451 62.5227C179.732 62.1117 179.164 61.5168 178.746 60.7379C178.328 59.959 178.12 59.0161 178.12 57.9091C178.12 56.7988 178.328 55.8542 178.746 55.0753C179.164 54.2964 179.732 53.7031 180.451 53.2955C181.171 52.8845 181.983 52.679 182.887 52.679C183.786 52.679 184.594 52.8845 185.314 53.2955C186.036 53.7031 186.606 54.2964 187.024 55.0753C187.445 55.8542 187.655 56.7988 187.655 57.9091ZM185.473 57.9091C185.473 57.1899 185.365 56.5833 185.149 56.0895C184.937 55.5956 184.637 55.2211 184.25 54.9659C183.862 54.7107 183.408 54.5831 182.887 54.5831C182.367 54.5831 181.913 54.7107 181.525 54.9659C181.137 55.2211 180.836 55.5956 180.62 56.0895C180.408 56.5833 180.302 57.1899 180.302 57.9091C180.302 58.6283 180.408 59.2348 180.62 59.7287C180.836 60.2225 181.137 60.5971 181.525 60.8523C181.913 61.1075 182.367 61.2351 182.887 61.2351C183.408 61.2351 183.862 61.1075 184.25 60.8523C184.637 60.5971 184.937 60.2225 185.149 59.7287C185.365 59.2348 185.473 58.6283 185.473 57.9091ZM194.85 63V52.8182H198.867C199.639 52.8182 200.297 52.9657 200.841 53.2607C201.384 53.5523 201.798 53.9583 202.083 54.4787C202.372 54.9957 202.516 55.5923 202.516 56.2685C202.516 56.9446 202.37 57.5412 202.078 58.0582C201.787 58.5753 201.364 58.978 200.811 59.2663C200.261 59.5547 199.594 59.6989 198.812 59.6989H196.252V57.9737H198.464C198.878 57.9737 199.22 57.9025 199.488 57.7599C199.76 57.6141 199.962 57.4136 200.095 57.1584C200.231 56.8999 200.299 56.6032 200.299 56.2685C200.299 55.9304 200.231 55.6354 200.095 55.3835C199.962 55.1283 199.76 54.9311 199.488 54.7919C199.217 54.6494 198.872 54.5781 198.454 54.5781H197.002V63H194.85ZM209.514 63V52.8182H216.375V54.593H211.667V57.0192H216.022V58.794H211.667V61.2251H216.395V63H209.514ZM223.687 63V52.8182H227.704C228.472 52.8182 229.129 52.9557 229.672 53.2308C230.219 53.5026 230.635 53.8887 230.92 54.3892C231.209 54.8864 231.353 55.4714 231.353 56.1442C231.353 56.8203 231.207 57.402 230.915 57.8892C230.624 58.3731 230.201 58.7443 229.647 59.0028C229.097 59.2614 228.431 59.3906 227.649 59.3906H224.959V57.6605H227.301C227.712 57.6605 228.053 57.6042 228.325 57.4915C228.597 57.3788 228.799 57.2098 228.932 56.9844C229.067 56.759 229.135 56.4789 229.135 56.1442C229.135 55.8061 229.067 55.5211 228.932 55.2891C228.799 55.0571 228.595 54.8814 228.32 54.7621C228.048 54.6394 227.705 54.5781 227.291 54.5781H225.839V63H223.687ZM229.185 58.3665L231.716 63H229.339L226.863 58.3665H229.185ZM240.229 63H237.922L241.437 52.8182H244.211L247.721 63H245.414L242.864 55.1449H242.784L240.229 63ZM240.085 58.9979H245.534V60.6783H240.085V58.9979ZM252.915 54.593V52.8182H261.277V54.593H258.16V63H256.032V54.593H252.915ZM270.407 52.8182V63H268.254V52.8182H270.407ZM287.134 57.9091C287.134 59.0194 286.924 59.964 286.503 60.7429C286.085 61.5218 285.515 62.1167 284.793 62.5277C284.074 62.9354 283.265 63.1392 282.367 63.1392C281.462 63.1392 280.65 62.9337 279.931 62.5227C279.211 62.1117 278.643 61.5168 278.225 60.7379C277.808 59.959 277.599 59.0161 277.599 57.9091C277.599 56.7988 277.808 55.8542 278.225 55.0753C278.643 54.2964 279.211 53.7031 279.931 53.2955C280.65 52.8845 281.462 52.679 282.367 52.679C283.265 52.679 284.074 52.8845 284.793 53.2955C285.515 53.7031 286.085 54.2964 286.503 55.0753C286.924 55.8542 287.134 56.7988 287.134 57.9091ZM284.952 57.9091C284.952 57.1899 284.844 56.5833 284.629 56.0895C284.417 55.5956 284.117 55.2211 283.729 54.9659C283.341 54.7107 282.887 54.5831 282.367 54.5831C281.846 54.5831 281.392 54.7107 281.004 54.9659C280.617 55.2211 280.315 55.5956 280.1 56.0895C279.888 56.5833 279.781 57.1899 279.781 57.9091C279.781 58.6283 279.888 59.2348 280.1 59.7287C280.315 60.2225 280.617 60.5971 281.004 60.8523C281.392 61.1075 281.846 61.2351 282.367 61.2351C282.887 61.2351 283.341 61.1075 283.729 60.8523C284.117 60.5971 284.417 60.2225 284.629 59.7287C284.844 59.2348 284.952 58.6283 284.952 57.9091ZM302.845 52.8182V63H300.986L296.556 56.5916H296.482V63H294.329V52.8182H296.218L300.613 59.2216H300.703V52.8182H302.845ZM315.747 55.7464C315.708 55.3454 315.537 55.0339 315.235 54.8118C314.934 54.5897 314.524 54.4787 314.007 54.4787C313.656 54.4787 313.359 54.5284 313.117 54.6278C312.876 54.724 312.69 54.8582 312.561 55.0305C312.435 55.2029 312.372 55.3984 312.372 55.6172C312.365 55.7995 312.403 55.9586 312.486 56.0945C312.572 56.2304 312.69 56.348 312.839 56.4474C312.988 56.5436 313.161 56.6281 313.356 56.701C313.552 56.7706 313.76 56.8303 313.983 56.88L314.897 57.0987C315.341 57.1982 315.749 57.3307 316.12 57.4964C316.492 57.6622 316.813 57.866 317.085 58.108C317.357 58.3499 317.567 58.6349 317.716 58.9631C317.869 59.2912 317.947 59.6674 317.95 60.0916C317.947 60.7147 317.787 61.255 317.473 61.7124C317.161 62.1664 316.71 62.5194 316.12 62.7713C315.534 63.0199 314.826 63.1442 313.997 63.1442C313.175 63.1442 312.46 63.0182 311.85 62.7663C311.243 62.5144 310.769 62.1416 310.428 61.6477C310.09 61.1506 309.912 60.5357 309.896 59.8033H311.979C312.002 60.1446 312.1 60.4297 312.272 60.6584C312.448 60.8838 312.682 61.0545 312.973 61.1705C313.268 61.2831 313.601 61.3395 313.973 61.3395C314.337 61.3395 314.654 61.2865 314.922 61.1804C315.194 61.0743 315.404 60.9268 315.554 60.7379C315.703 60.549 315.777 60.3319 315.777 60.0866C315.777 59.858 315.709 59.6657 315.573 59.5099C315.441 59.3542 315.245 59.2216 314.987 59.1122C314.732 59.0028 314.418 58.9034 314.047 58.8139L312.938 58.5355C312.08 58.3267 311.402 58.0002 310.905 57.5561C310.408 57.112 310.161 56.5137 310.164 55.7614C310.161 55.1449 310.325 54.6063 310.657 54.1456C310.991 53.6849 311.45 53.3253 312.034 53.0668C312.617 52.8082 313.28 52.679 314.022 52.679C314.778 52.679 315.438 52.8082 316.001 53.0668C316.568 53.3253 317.009 53.6849 317.323 54.1456C317.638 54.6063 317.801 55.1399 317.811 55.7464H315.747Z" fill="#94A3B8"/>
<defs>
<filter id="filter0_dd_2_814" x="0" y="0" width="88" height="88" filterUnits="userSpaceOnUse" color-interpolation-filters="sRGB">
<feFlood flood-opacity="0" result="BackgroundImageFix"/>
<feColorMatrix in="SourceAlpha" type="matrix" values="0 0 0 0 0 0 0 0 0 0 0 0 0 0 0 0 0 0 127 0" result="hardAlpha"/>
<feMorphology radius="4" operator="erode" in="SourceAlpha" result="effect1_dropShadow_2_814"/>
<feOffset dy="4"/>
<feGaussianBlur stdDeviation="3"/>
<feComposite in2="hardAlpha" operator="out"/>
<feColorMatrix type="matrix" values="0 0 0 0 0.0980392 0 0 0 0 0.764706 0 0 0 0 0.490196 0 0 0 0.2 0"/>
<feBlend mode="normal" in2="BackgroundImageFix" result="effect1_dropShadow_2_814"/>
<feColorMatrix in="SourceAlpha" type="matrix" values="0 0 0 0 0 0 0 0 0 0 0 0 0 0 0 0 0 0 127 0" result="hardAlpha"/>
<feMorphology radius="3" operator="erode" in="SourceAlpha" result="effect2_dropShadow_2_814"/>
<feOffset dy="10"/>
<feGaussianBlur stdDeviation="7.5"/>
<feComposite in2="hardAlpha" operator="out"/>
<feColorMatrix type="matrix" values="0 0 0 0 0.0980392 0 0 0 0 0.764706 0 0 0 0 0.490196 0 0 0 0.2 0"/>
<feBlend mode="normal" in2="effect1_dropShadow_2_814" result="effect2_dropShadow_2_814"/>
<feBlend mode="normal" in="SourceGraphic" in2="effect2_dropShadow_2_814" result="shape"/>
</filter>
<filter id="filter1_f_2_814" x="28" y="18" width="32" height="32" filterUnits="userSpaceOnUse" color-interpolation-filters="sRGB">
<feFlood flood-opacity="0" result="BackgroundImageFix"/>
<feBlend mode="normal" in="SourceGraphic" in2="BackgroundImageFix" result="shape"/>
<feGaussianBlur stdDeviation="0.5" result="effect1_foregroundBlur_2_814"/>
</filter>
<clipPath id="clip0_2_814">
<rect x="12" y="2" width="64" height="64" rx="16" fill="white"/>
</clipPath>
<clipPath id="clip1_2_814">
<rect width="64" height="64" fill="white" transform="translate(12 2)"/>
</clipPath>
</defs>
</svg>
